<svg xmlns="http://www.w3.org/2000/svg" viewBox="0 0 1600 320"><defs><style>.cls-1{fill:#ebf0fc;}.cls-2{fill:#adc3f4;}.cls-3{fill:#4778e7;}.cls-4{fill:#04d;}.cls-5{font-size:17.88px;}.cls-12,.cls-22,.cls-5{fill:#fff;font-family:Roboto-Black, Roboto;}.cls-6{letter-spacing:0.01em;}.cls-7{letter-spacing:0em;}.cls-8{fill:#ecf0f4;}.cls-9{fill:#b2c2d3;}.cls-10{fill:#51759c;}.cls-11{fill:#0e3f75;}.cls-12{font-size:14.4px;}.cls-13{letter-spacing:0.01em;}.cls-14{fill:#ecedef;}.cls-15{fill:#b3b9be;}.cls-16{fill:#54616c;}.cls-17{fill:#112333;}.cls-18{fill:#fdf9ed;}.cls-19{fill:#f8e5b6;}.cls-20{fill:#f0c55b;}.cls-21{fill:#eaae1b;}.cls-22{font-size:14px;}.cls-23{letter-spacing:-0.03em;}.cls-24{fill:#fff1ff;}.cls-25{fill:#fdc8ff;}.cls-26{fill:#fb82ff;}.cls-27{fill:#fa52ff;}</style></defs><title>colors</title><g id="Layer_1" data-name="Layer 1"><circle class="cls-1" cx="800.62" cy="167" r="113"/><circle class="cls-2" cx="800.62" cy="167" r="94.6"/><circle class="cls-3" cx="800.62" cy="167" r="69.64"/><circle class="cls-4" cx="800.62" cy="167" r="43.36"/><text class="cls-5" transform="translate(768.38 170.18)">Prima<tspan class="cls-6" x="48.21" y="0">r</tspan><tspan class="cls-7" x="55.14" y="0">y</tspan></text><circle class="cls-8" cx="562.62" cy="167" r="91"/><circle class="cls-9" cx="562.62" cy="167" r="76.19"/><circle class="cls-10" cx="562.62" cy="167" r="56.08"/><circle class="cls-11" cx="562.62" cy="167" r="34.92"/><text class="cls-12" transform="translate(527.93 169.56)">Seconda<tspan class="cls-13" x="56.27" y="0">r</tspan><tspan x="61.86" y="0">y</tspan></text><circle class="cls-14" cx="1038.62" cy="167" r="91"/><circle class="cls-15" cx="1038.62" cy="167" r="76.19"/><circle class="cls-16" cx="1038.62" cy="167" r="56.08"/><circle class="cls-17" cx="1038.62" cy="167" r="34.92"/><text class="cls-12" transform="translate(1023.37 169.56)">Dark</text><circle class="cls-18" cx="360.62" cy="167" r="77"/><circle class="cls-19" cx="360.62" cy="167" r="64.47"/><circle class="cls-20" cx="360.62" cy="167" r="47.45"/><circle class="cls-21" cx="360.62" cy="167" r="29.55"/><text class="cls-22" transform="translate(339.78 169.15)"><tspan class="cls-23">Y</tspan><tspan x="8.35" y="0">ellow</tspan></text><circle class="cls-24" cx="1240.62" cy="167" r="77"/><circle class="cls-25" cx="1240.62" cy="167" r="64.47"/><circle class="cls-26" cx="1240.62" cy="167" r="47.45"/><circle class="cls-27" cx="1240.62" cy="167" r="29.55"/><text class="cls-22" transform="translate(1226.25 169.17)">Pink</text></g></svg>