<svg xmlns="http://www.w3.org/2000/svg" viewBox="0 0 1600 320"><defs><style>.cls-1,.cls-2,.cls-8,.cls-9{fill:none;}.cls-1,.cls-9{stroke:#9aaec5;}.cls-1,.cls-12,.cls-7,.cls-8,.cls-9{stroke-miterlimit:10;}.cls-1{stroke-dasharray:4;}.cls-3{font-size:16px;font-family:Roboto-Regular, Roboto;}.cls-10,.cls-3{fill:#0e3f75;}.cls-4{letter-spacing:-0.01em;}.cls-5{letter-spacing:0em;}.cls-6{fill:#cad5e1;}.cls-12,.cls-7{fill:#fff;}.cls-12,.cls-7,.cls-8{stroke:#51759c;}.cls-7{stroke-width:3px;}.cls-8{stroke-dasharray:4 4;}.cls-9{stroke-dasharray:3.99 3.99;}.cls-11{fill:#51759c;}</style></defs><title>typography1</title><g id="Layer_1" data-name="Layer 1"><circle class="cls-1" cx="255.75" cy="175.5" r="79"/><rect class="cls-2" width="1600" height="320"/><text class="cls-3" transform="translate(318 280.68)">Usage font Robo<tspan class="cls-4" x="118.52" y="0">t</tspan><tspan class="cls-5" x="123.59" y="0">o</tspan></text><rect class="cls-6" x="687" y="54.09" width="227.93" height="212.84" rx="4" ry="4"/><rect class="cls-7" x="697.1" y="48" width="207.73" height="207.73" rx="4" ry="4"/><rect class="cls-8" x="703.2" y="54.09" width="195.54" height="195.54" rx="4" ry="4"/><rect class="cls-9" x="710.82" y="61.71" width="180.3" height="180.3" rx="90.15" ry="90.15"/><path class="cls-10" d="M836.88,171H765l-16.34,43.89h-6L797.64,68h6.66l55,146.89h-5.95ZM767,165.57h67.89L801,74.58Z"/><line class="cls-1" x1="652" y1="97.33" x2="210" y2="97.33"/><line class="cls-1" x1="652" y1="253.96" x2="210" y2="253.96"/><line class="cls-1" x1="652" y1="47.63" x2="210" y2="47.63"/><rect class="cls-6" x="1098.67" y="181.47" width="78.95" height="78.95" rx="4" ry="4"/><rect class="cls-6" x="1216.32" y="181.47" width="78.95" height="78.95" rx="4" ry="4"/><rect class="cls-6" x="975.03" y="181.47" width="78.95" height="78.95" rx="4" ry="4"/><rect class="cls-6" x="1216.32" y="55.69" width="78.95" height="78.95" rx="4" ry="4" transform="translate(0.34 -4.38) rotate(0.2)"/><rect class="cls-6" x="1098.67" y="55.56" width="78.95" height="78.95" rx="4" ry="4"/><rect class="cls-6" x="975.03" y="55.56" width="78.95" height="78.95" rx="4" ry="4"/><rect class="cls-7" x="1098.67" y="174.47" width="78.95" height="78.95" rx="4" ry="4"/><path class="cls-11" d="M1134.31,217.27h-11.62l-2.63,7.19h-2.27l9.69-25.59h2l9.69,25.59H1137Zm-11-1.82h10.27l-5.13-13.94Z"/><path class="cls-11" d="M1154.49,224.46a10,10,0,0,1-.4-2.65,7.35,7.35,0,0,1-2.82,2.22,8.64,8.64,0,0,1-3.63.78,6.37,6.37,0,0,1-4.44-1.52,5,5,0,0,1-1.7-3.87,5.1,5.1,0,0,1,2.31-4.4,11.2,11.2,0,0,1,6.45-1.61h3.81v-2.17a4.16,4.16,0,0,0-1.26-3.2,5.16,5.16,0,0,0-3.66-1.17,5.74,5.74,0,0,0-3.64,1.12,3.36,3.36,0,0,0-1.44,2.71l-2.11,0a4.89,4.89,0,0,1,2.11-3.93,8.17,8.17,0,0,1,5.19-1.66,7.38,7.38,0,0,1,5,1.59,5.67,5.67,0,0,1,1.89,4.44v9a11.29,11.29,0,0,0,.58,4.13v.21Zm-6.61-1.51a7,7,0,0,0,3.77-1,6,6,0,0,0,2.42-2.72V215h-3.76a9.41,9.41,0,0,0-4.92,1.16,3.54,3.54,0,0,0-.59,5.72A4.48,4.48,0,0,0,1147.88,223Z"/><rect class="cls-7" x="1216.32" y="174.47" width="78.95" height="78.95" rx="4" ry="4"/><path class="cls-11" d="M1252.54,216.82H1240l-2.84,7.64h-1l9.58-25.59h1.16l9.58,25.59h-1Zm-12.18-.95h11.83L1246.28,200Z"/><path class="cls-11" d="M1272.35,224.46A13,13,0,0,1,1272,221a7.58,7.58,0,0,1-3.08,2.83,9.48,9.48,0,0,1-4.41,1,6.12,6.12,0,0,1-4.25-1.43,4.76,4.76,0,0,1-1.61-3.73,4.83,4.83,0,0,1,2.37-4.2,11.39,11.39,0,0,1,6.28-1.6h4.7v-2.78a4.66,4.66,0,0,0-1.51-3.71,6.29,6.29,0,0,0-4.29-1.32,6.94,6.94,0,0,0-4.35,1.34,4,4,0,0,0-1.74,3.3l-.95,0a4.87,4.87,0,0,1,2-3.94,7.79,7.79,0,0,1,5-1.62,7.25,7.25,0,0,1,4.88,1.54A5.54,5.54,0,0,1,1273,211v9.09a12.19,12.19,0,0,0,.49,4.26v.15Zm-7.84-.59a8.49,8.49,0,0,0,4.59-1.2,7.44,7.44,0,0,0,2.9-3.36V214.8h-4.4a10.27,10.27,0,0,0-6.24,1.61,4,4,0,0,0-1.76,3.29,3.79,3.79,0,0,0,1.39,3A5.16,5.16,0,0,0,1264.51,223.87Z"/><rect class="cls-7" x="975.03" y="174.47" width="78.95" height="78.95" rx="4" ry="4"/><path class="cls-11" d="M1010.07,217.77H999.35l-2.41,6.69h-3.48l9.78-25.59h3l9.79,25.59h-3.46Zm-9.7-2.76h8.7l-4.36-12Z"/><path class="cls-11" d="M1030.66,224.46a6.75,6.75,0,0,1-.46-2,7.25,7.25,0,0,1-5.41,2.35,6.72,6.72,0,0,1-4.62-1.59,5.14,5.14,0,0,1-1.8-4,5.35,5.35,0,0,1,2.26-4.61,10.59,10.59,0,0,1,6.35-1.65h3.17v-1.49a3.67,3.67,0,0,0-1-2.72,4.12,4.12,0,0,0-3-1,4.73,4.73,0,0,0-2.92.88,2.61,2.61,0,0,0-1.17,2.13h-3.27a4.44,4.44,0,0,1,1-2.75,6.8,6.8,0,0,1,2.74-2.1,9.14,9.14,0,0,1,3.81-.78,7.51,7.51,0,0,1,5.15,1.65,5.92,5.92,0,0,1,1.93,4.52V220a10.6,10.6,0,0,0,.67,4.16v.28Zm-5.4-2.48a5.67,5.67,0,0,0,2.9-.79,4.73,4.73,0,0,0,2-2.05v-3.91h-2.55q-6,0-6,3.5a3,3,0,0,0,1,2.39A3.88,3.88,0,0,0,1025.26,222Z"/><rect class="cls-7" x="1216.32" y="48.69" width="78.95" height="78.95" rx="4" ry="4" transform="translate(0.32 -4.38) rotate(0.2)"/><path class="cls-11" d="M1251,92.71l-9.91,0-2.1,6h-4.62l9.76-25.56h4l9.59,25.63-4.64,0Zm-8.65-3.62,7.42,0-3.67-10.63Z"/><path class="cls-11" d="M1271.55,98.74a6.61,6.61,0,0,1-.49-1.78,6.64,6.64,0,0,1-5,2.11,6.74,6.74,0,0,1-4.67-1.65,5.28,5.28,0,0,1-1.8-4,5.41,5.41,0,0,1,2.28-4.66,10.92,10.92,0,0,1,6.46-1.6H1271V85.87a3,3,0,0,0-3.33-3.27,3.74,3.74,0,0,0-2.39.73,2.23,2.23,0,0,0-.94,1.85l-4.27,0a4.72,4.72,0,0,1,1-2.92,6.92,6.92,0,0,1,2.83-2.13,10,10,0,0,1,4-.76,8,8,0,0,1,5.32,1.7,6,6,0,0,1,2,4.73l0,8.58a9.57,9.57,0,0,0,.71,4.09v.3Zm-4.69-3.1a4.77,4.77,0,0,0,2.39-.6,4.17,4.17,0,0,0,1.68-1.65V89.81h-2.3a6.25,6.25,0,0,0-3.57.81,2.67,2.67,0,0,0-1.2,2.33,2.46,2.46,0,0,0,.81,2A3.12,3.12,0,0,0,1266.86,95.64Z"/><rect class="cls-7" x="1098.67" y="48.56" width="78.95" height="78.95" rx="4" ry="4"/><path class="cls-11" d="M1133.12,93.29h-9.25l-1.76,5.27h-5.6L1126,73h4.89l9.58,25.6h-5.61ZM1125.3,89h6.39l-3.21-9.58Z"/><path class="cls-11" d="M1153.58,98.56a6,6,0,0,1-.51-1.71,6.15,6.15,0,0,1-4.8,2.06,6.74,6.74,0,0,1-4.63-1.62,5.18,5.18,0,0,1-1.84-4.08,5.39,5.39,0,0,1,2.24-4.64,11.14,11.14,0,0,1,6.48-1.63h2.34V85.85a3.15,3.15,0,0,0-.68-2.11,2.64,2.64,0,0,0-2.13-.79,3,3,0,0,0-2,.61,2.12,2.12,0,0,0-.73,1.69h-5.08a5.11,5.11,0,0,1,1-3.06,6.74,6.74,0,0,1,2.89-2.2,10.35,10.35,0,0,1,4.18-.8,8.35,8.35,0,0,1,5.58,1.76,6.19,6.19,0,0,1,2.07,5v8.24a9.13,9.13,0,0,0,.75,4.1v.3Zm-4.2-3.53a4.29,4.29,0,0,0,2.07-.51,3.27,3.27,0,0,0,1.41-1.34V89.91H1151c-2.54,0-3.9.88-4.06,2.64l0,.3a2,2,0,0,0,.67,1.56A2.6,2.6,0,0,0,1149.38,95Z"/><rect class="cls-7" x="975.03" y="48.56" width="78.95" height="78.95" rx="4" ry="4"/><path class="cls-11" d="M1009.19,93.78h-8.46l-1.48,4.78h-6.59l9.39-25.6h5.8l9.46,25.6h-6.63Zm-7-4.77h5.5L1005,80.14Z"/><path class="cls-11" d="M1029.61,98.56a6.67,6.67,0,0,1-.56-1.71,5.51,5.51,0,0,1-4.57,2.06,6.72,6.72,0,0,1-4.57-1.63A5.14,5.14,0,0,1,1018,93.2a5.33,5.33,0,0,1,2.28-4.68,11.71,11.71,0,0,1,6.65-1.58h1.83v-1c0-1.75-.76-2.63-2.27-2.63a1.86,1.86,0,0,0-2.11,2.09h-5.93a5.33,5.33,0,0,1,2.35-4.48,9.86,9.86,0,0,1,6-1.72,8.64,8.64,0,0,1,5.74,1.77,6.2,6.2,0,0,1,2.17,4.87v8.42a8.53,8.53,0,0,0,.81,4v.3Zm-3.71-3.87a3.37,3.37,0,0,0,1.84-.47,3.07,3.07,0,0,0,1-1.08v-3h-1.73c-2.06,0-3.09.93-3.09,2.78a1.7,1.7,0,0,0,.54,1.31A2,2,0,0,0,1025.9,94.69Z"/><path class="cls-6" d="M449.45,199.72H348.51L325.57,261.3h-8.35L394.38,55.17h9.34L480.88,261.3h-8.35Zm-98.11-7.65h95.28L399.05,64.38Z"/><path class="cls-6" d="M609,261.3q-2.84-9.77-2.83-28a61.46,61.46,0,0,1-24.77,22.8q-15.72,8.07-35.54,8.07-21.24,0-34.19-11.54t-12.95-30.09q0-21.09,19-33.76t50.61-13h37.8V153.43q0-19.26-12.1-29.88t-34.62-10.61q-21,0-35,10.76t-14,26.61l-7.65-.28q0-18.69,16.42-31.71t40.21-13q24.78,0,39.36,12.39t15,34.9v73.19q0,25.2,4,34.26v1.27Zm-63.14-4.81q21.52,0,37-9.63a59.55,59.55,0,0,0,23.29-27V183.44H570.78q-32.85,0-50.26,13-14.16,10.62-14.16,26.48,0,14,11.19,23.78T545.86,256.49Z"/><path class="cls-12" d="M449.45,192H348.51l-22.94,61.59h-8.35L394.38,47.45h9.34l77.16,206.13h-8.35Zm-98.11-7.64h95.28L399.05,56.65Z"/><path class="cls-12" d="M609,253.58q-2.84-9.78-2.83-28a61.46,61.46,0,0,1-24.77,22.8q-15.72,8.07-35.54,8.07-21.24,0-34.19-11.54t-12.95-30.08q0-21.1,19-33.77t50.61-13h37.8V145.7q0-19.26-12.1-29.87t-34.62-10.62q-21,0-35,10.76t-14,26.61l-7.65-.28q0-18.69,16.42-31.71t40.21-13q24.78,0,39.36,12.39t15,34.9V218q0,25.2,4,34.26v1.28Zm-63.14-4.82q21.52,0,37-9.62a59.65,59.65,0,0,0,23.29-27V175.71H570.78q-32.85,0-50.26,13-14.16,10.6-14.16,26.47,0,14,11.19,23.78T545.86,248.76Z"/><rect class="cls-2" x="-0.5" y="-0.5" width="800" height="23"/><rect class="cls-2" x="799.5" y="-0.5" width="800" height="23"/><circle class="cls-1" cx="255.75" cy="72" r="24.5"/></g></svg>